HIERARCHY
ROOT hip
{
	OFFSET 0.000000 0.000000 0.000000
	CHANNELS 6 Xposition Yposition Zposition Zrotation Yrotation Xrotation 
	JOINT lhipjoint
	{
		OFFSET 0.000000 0.000000 0.000000
		CHANNELS 3 Zrotation Yrotation Xrotation
		JOINT lfemur
		{
			OFFSET 1.363060 -1.794630 0.839290
			CHANNELS 3 Zrotation Yrotation Xrotation
			JOINT ltibia
			{
				OFFSET 2.448110 -6.726130 0.000000
				CHANNELS 3 Zrotation Yrotation Xrotation
				JOINT lfoot
				{
					OFFSET 2.562200 -7.039590 0.000000
					CHANNELS 3 Zrotation Yrotation Xrotation
					JOINT ltoes
					{
						OFFSET 0.157640 -0.433110 2.322550
						CHANNELS 3 Zrotation Yrotation Xrotation
						End Site
						{
							OFFSET 0.000000 0.000000 0.000000
						}
					}
				}
			}
		}
	}
	JOINT rhipjoint
	{
		OFFSET 0.000000 0.000000 0.000000
		CHANNELS 3 Zrotation Yrotation Xrotation
		JOINT rfemur
		{
			OFFSET -1.305520 -1.794630 0.839290
			CHANNELS 3 Zrotation Yrotation Xrotation
			JOINT rtibia
			{
				OFFSET -2.542530 -6.985550 0.000000
				CHANNELS 3 Zrotation Yrotation Xrotation
				JOINT rfoot
				{
					OFFSET -2.568260 -7.056230 0.000000
					CHANNELS 3 Zrotation Yrotation Xrotation
					JOINT rtoes
					{
						OFFSET -0.164730 -0.452590 2.363150
						CHANNELS 3 Zrotation Yrotation Xrotation
						End Site
						{
							OFFSET 0.000000 0.000000 0.000000
						}
					}
				}
			}
		}
	}
	JOINT lowerback
	{
		OFFSET 0.000000 0.000000 0.000000
		CHANNELS 3 Zrotation Yrotation Xrotation
		JOINT upperback
		{
			OFFSET 0.028270 2.035590 -0.193380
			CHANNELS 3 Zrotation Yrotation Xrotation
			JOINT thorax
			{
				OFFSET 0.056720 2.048850 -0.042750
				CHANNELS 3 Zrotation Yrotation Xrotation
				JOINT lowerneck
				{
					OFFSET 0.000000 0.000000 0.000000
					CHANNELS 3 Zrotation Yrotation Xrotation
					JOINT upperneck
					{
						OFFSET -0.054170 1.746240 0.172020
						CHANNELS 3 Zrotation Yrotation Xrotation
						JOINT head
						{
							OFFSET 0.104070 1.761360 -0.123970
							CHANNELS 3 Zrotation Yrotation Xrotation
							End Site
							{
								OFFSET 0.000000 0.000000 0.000000
							}
						}
					}
				}
				JOINT lclavicle
				{
					OFFSET 0.000000 0.000000 0.000000
					CHANNELS 3 Zrotation Yrotation Xrotation
					JOINT lhumerus
					{
						OFFSET 3.362410 1.200890 -0.311210
						CHANNELS 3 Zrotation Yrotation Xrotation
						JOINT lradius
						{
							OFFSET 4.983000 -0.000000 -0.000000
							CHANNELS 3 Zrotation Yrotation Xrotation
							JOINT lwrist
							{
								OFFSET 3.483560 -0.000000 -0.000000
								CHANNELS 3 Zrotation Yrotation Xrotation
								JOINT lhand
								{
									OFFSET 0.000000 0.000000 0.000000
									CHANNELS 3 Zrotation Yrotation Xrotation
									JOINT lfingers
									{
										OFFSET 0.715260 -0.000000 -0.000000
										CHANNELS 3 Zrotation Yrotation Xrotation
										End Site
										{
											OFFSET 0.000000 0.000000 0.000000
										}
									}
								}
								JOINT lthumb
								{
									OFFSET 0.000000 0.000000 0.000000
									CHANNELS 3 Zrotation Yrotation Xrotation
									End Site
									{
										OFFSET 0.000000 0.000000 0.000000
									}
								}
							}
						}
					}
				}
				JOINT rclavicle
				{
					OFFSET 0.000000 0.000000 0.000000
					CHANNELS 3 Zrotation Yrotation Xrotation
					JOINT rhumerus
					{
						OFFSET -3.136600 1.374050 -0.404650
						CHANNELS 3 Zrotation Yrotation Xrotation
						JOINT rradius
						{
							OFFSET -5.241900 -0.000000 -0.000000
							CHANNELS 3 Zrotation Yrotation Xrotation
							JOINT rwrist
							{
								OFFSET -3.444170 -0.000000 -0.000000
								CHANNELS 3 Zrotation Yrotation Xrotation
								JOINT rhand
								{
									OFFSET 0.000000 0.000000 0.000000
									CHANNELS 3 Zrotation Yrotation Xrotation
									JOINT rfingers
									{
										OFFSET -0.622530 -0.000000 -0.000000
										CHANNELS 3 Zrotation Yrotation Xrotation
										End Site
										{
											OFFSET 0.000000 0.000000 0.000000
										}
									}
								}
								JOINT rthumb
								{
									OFFSET 0.000000 0.000000 0.000000
									CHANNELS 3 Zrotation Yrotation Xrotation
									End Site
									{
										OFFSET 0.000000 0.000000 0.000000
									}
								}
							}
						}
					}
				}
			}
		}
	}
}
MOTION
Frames: 7
Frame Time: 0.008333
-21.834087 19.195304 -0.111351 10.522359 -81.031193 -13.910530 7.394317 2.600943 -0.882960 -25.603782 9.135621 -8.086125 0.607236 8.051271 24.123789 5.320517 -13.537503 19.627531 0.007900 -0.573000 -1.574600 -13.746114 -3.049566 -4.685611 27.602332 0.223605 -3.593563 -3.804216 -9.067885 29.495564 -2.645398 7.745676 6.796708 -0.091600 1.952200 -5.373600 -8.300177 4.885361 1.411258 -0.671142 6.706556 -0.850828 -0.575796 3.554016 12.544971 -0.713387 -6.893069 -7.266716 2.015156 -9.815872 22.508620 -0.225600 -4.709300 6.785700 -2.193404 1.731299 3.531980 -69.972635 -2.929073 21.866304 2.567001 -31.699985 -2.835024 0.468747 1.161858 25.902859 23.789260 -5.366910 -2.966200 -7.125000 0.000000 0.000000 -2.109000 22.639700 1.135400 2.186586 -0.041545 5.188071 65.350518 26.169468 34.819906 -57.029419 58.955295 -23.719051 0.121296 -4.810702 3.702563 -24.114109 10.026058 -6.904800 7.125000 0.000000 0.000000 1.954900 -13.269600 1.454800 
-21.874089 19.191921 -0.115729 10.748989 -80.937306 -14.159921 7.404560 2.601036 -0.880681 -25.617810 9.136306 -7.922508 0.610021 8.046951 24.129551 5.326956 -13.611831 19.522570 0.008300 -0.586700 -1.612200 -13.716148 -3.041634 -4.724672 27.513378 -0.008950 -3.442850 -3.802587 -9.054058 29.484583 -2.674670 7.921139 6.663103 -0.096700 2.005100 -5.519900 -8.120429 4.827126 1.272678 -0.658775 6.641385 -0.853163 -0.589211 3.525609 12.635724 -0.644091 -6.817997 -7.360334 2.059014 -9.742116 22.590884 -0.237300 -4.659300 6.841600 -2.145013 1.740284 3.531889 -70.155696 -2.620379 20.770098 1.832269 -30.950987 -2.677719 0.460434 1.101321 26.995046 23.490745 -4.996011 -2.735300 -7.125000 0.000000 0.000000 -2.318500 23.133200 1.222200 2.186051 -0.040785 5.175604 65.379463 26.069355 34.912020 -57.394289 59.094401 -23.937661 0.119594 -4.820485 3.560310 -24.115898 10.091426 -6.936100 7.125000 0.000000 0.000000 1.967900 -13.185500 1.468000 
-21.913793 19.188040 -0.120705 10.858664 -80.844984 -14.292900 7.410016 2.597420 -0.880402 -25.608061 9.115293 -7.750684 0.613650 8.041276 24.131440 5.330598 -13.668631 19.409207 0.009900 -0.643000 -1.767100 -13.694633 -3.035724 -4.759347 27.458004 -0.200819 -3.278850 -3.799826 -9.040097 29.469384 -2.693355 8.035756 6.544992 -0.099300 2.032500 -5.595400 -7.931343 4.775324 1.130770 -0.642170 6.585135 -0.856317 -0.570396 3.496522 12.716283 -0.563300 -6.775893 -7.442909 2.067003 -9.701177 22.665048 -0.276900 -4.622100 6.884900 -2.082899 1.748299 3.531819 -70.337760 -2.304878 19.742115 1.083209 -30.188510 -2.521391 0.453999 1.041482 27.860473 23.201956 -4.661417 -2.526600 -7.125000 0.000000 0.000000 -2.530300 23.581600 1.308000 2.194361 -0.031653 5.160037 65.374380 25.964007 34.965905 -57.724598 59.212188 -24.139936 0.120419 -4.824403 3.440197 -24.095788 10.129016 -6.945800 7.125000 0.000000 0.000000 1.990500 -13.142600 1.486700 
-21.952005 19.183761 -0.125779 10.990025 -80.773985 -14.444423 7.415224 2.594505 -0.882388 -25.597020 9.114027 -7.588961 0.616382 8.034148 24.127188 5.333172 -13.715597 19.304771 0.010500 -0.661900 -1.819000 -13.673047 -3.030153 -4.795304 27.396758 -0.407355 -3.138027 -3.795515 -9.026316 29.452037 -2.720511 8.194863 6.457264 -0.104900 2.089000 -5.751600 -7.738391 4.727338 0.982288 -0.625484 6.534332 -0.855396 -0.538312 3.468567 12.837629 -0.495049 -6.736628 -7.576016 2.065651 -9.660671 22.733892 -0.320900 -4.584800 6.938000 -2.019980 1.767996 3.531962 -70.541500 -2.062286 18.616039 0.297627 -29.369632 -2.364000 0.450762 0.975655 28.811770 22.962827 -4.379429 -2.348900 -7.125000 0.000000 0.000000 -2.712700 23.971700 1.378100 2.210257 -0.034480 5.138740 65.340791 25.897002 35.018447 -58.161616 59.351805 -24.401766 0.125112 -4.826241 3.336139 -24.007368 10.112816 -6.909300 7.125000 0.000000 0.000000 2.051700 -13.172600 1.531200 
-21.990117 19.180279 -0.130357 11.108602 -80.689529 -14.563375 7.421992 2.591137 -0.884248 -25.598518 9.062324 -7.424103 0.620197 8.026383 24.116357 5.332564 -13.750120 19.142695 0.012500 -0.722300 -1.985000 -13.656063 -3.026183 -4.822924 27.348365 -0.565009 -3.006310 -3.791589 -9.012763 29.430963 -2.739893 8.310958 6.354310 -0.111800 2.155700 -5.936200 -7.545926 4.678071 0.820344 -0.607339 6.481399 -0.859109 -0.512464 3.438940 12.922648 -0.384512 -6.725790 -7.669660 2.029557 -9.648484 22.793665 -0.397200 -4.556100 6.968600 -1.947321 1.782027 3.530431 -70.723707 -1.791294 17.581104 -0.475089 -28.552379 -2.210592 0.448387 0.906221 29.651094 22.742851 -4.235878 -2.233300 -7.125000 0.000000 0.000000 -2.888200 24.211700 1.451400 2.228766 -0.018559 5.117972 65.305652 25.776572 35.043645 -58.631292 59.491923 -24.685652 0.130037 -4.827041 3.234471 -23.895234 10.089856 -6.861600 7.125000 0.000000 0.000000 2.128100 -13.215400 1.586300 
-22.026139 19.177194 -0.136427 11.209167 -80.606457 -14.698496 7.426870 2.586678 -0.886296 -25.583383 9.042868 -7.244413 0.623014 8.016658 24.105415 5.334171 -13.793691 19.016717 0.013900 -0.760000 -2.088800 -13.639124 -3.017986 -4.854645 27.310122 -0.699068 -2.823020 -3.787431 -8.996416 29.405416 -2.754009 8.396004 6.225956 -0.121500 2.247500 -6.190100 -7.346166 4.627898 0.713670 -0.590662 6.418625 -0.861724 -0.529289 3.407875 13.001986 -0.231669 -6.711775 -7.780674 1.986545 -9.633271 22.846627 -0.489600 -4.520700 7.001800 -1.876964 1.802356 3.523567 -70.878098 -1.559259 16.445894 -1.270058 -27.659585 -2.054049 0.444539 0.828545 30.560337 22.514484 -4.181836 -2.152500 -7.125000 0.000000 0.000000 -3.073900 24.362400 1.534300 2.247710 -0.002164 5.102430 65.318692 25.709017 35.073920 -59.114937 59.634208 -24.979443 0.133197 -4.835371 3.151884 -23.845785 10.077580 -6.843300 7.125000 0.000000 0.000000 2.163100 -13.226500 1.611900 
-22.060868 19.174806 -0.142895 11.274053 -80.503978 -14.778292 7.429908 2.580615 -0.888150 -25.564480 8.977891 -7.076453 0.623623 8.005464 24.089161 5.334645 -13.818825 18.938390 0.013700 -0.754700 -2.074100 -13.626032 -3.012052 -4.883834 27.288138 -0.823796 -2.659755 -3.782231 -8.980157 29.374184 -2.761533 8.442235 6.101547 -0.125200 2.281100 -6.283200 -7.158400 4.566939 0.582155 -0.569385 6.345684 -0.863682 -0.496418 3.365069 13.097092 -0.103346 -6.699531 -7.908134 1.945905 -9.618608 22.893216 -0.579800 -4.485900 7.035800 -1.800192 1.822922 3.517956 -71.057345 -1.325600 15.281995 -2.050795 -26.778435 -1.905898 0.438456 0.752222 31.449907 22.203505 -4.238749 -2.110000 -7.125000 0.000000 0.000000 -3.321700 24.395500 1.655800 2.273501 0.010787 5.080048 65.274545 25.660776 35.078438 -59.585926 59.766453 -25.274095 0.132378 -4.837729 3.036400 -23.801852 10.119241 -6.845400 7.125000 0.000000 0.000000 2.202900 -13.185500 1.643600 
